<?xml version="1.0" standalone="no"?>
<!DOCTYPE svg PUBLIC "-//W3C//DTD SVG 20010904//EN" "http://www.w3.org/TR/2001/REC-SVG-20010904/DTD/svg10.dtd">
<!-- Created using Krita: https://krita.org -->
<svg xmlns="http://www.w3.org/2000/svg" 
    xmlns:xlink="http://www.w3.org/1999/xlink"
    xmlns:krita="http://krita.org/namespaces/svg/krita"
    xmlns:sodipodi="http://sodipodi.sourceforge.net/DTD/sodipodi-0.dtd"
    width="254.88pt"
    height="251.28pt"
    viewBox="0 0 254.88 251.28">
<defs/>
<path id="shape0" transform="matrix(0.72 0 0 0.72 20.52 271.44)" fill="#000000" stroke-opacity="0" stroke="#000000" stroke-width="0" stroke-linecap="square" stroke-linejoin="bevel" d="M30.1 167.3C32.4 166.2 34.2 164.5 35.5 162.2C36.8 159.9 37.5 156.9 37.5 153.3L37.5 131.5L42.3 129.8L42.3 128.6L28 128.6L28 129.8L34 131.5L34 154.4C34 157.1 33.5 159.3 32.6 161C31.7 162.7 30.4 163.9 28.8 164.7C27.2 165.5 25.5 165.9 23.6 165.9C21.3 165.9 19.2 165.5 17.4 164.6C15.6 163.8 14.2 162.4 13.2 160.4C12.2 158.4 11.7 155.8 11.7 152.5L11.7 131.6L16.5 129.8L16.5 128.6L2.2 128.6L2.2 129.8L7 131.6L7 153.3C7 157 7.7 159.9 9 162.2C10.3 164.5 12.1 166.2 14.4 167.3C16.7 168.4 19.3 168.9 22.3 168.9C25.2 169 27.8 168.4 30.1 167.3M272 163.7L272 163L275.8 161.3L275.8 150.6L266.4 137.8L263.7 136.3L263.7 135.6L274.7 135.6L274.7 136.3L271.6 137.8L271.6 138L279.2 148.3L286 138.1L286 137.9L282.8 136.3L282.8 135.6L292 135.6L292 136.3L289.2 137.7L280.2 150.6L280.2 161.4L284 163.1L284 163.8L272 163.8ZM253.6 163.7L253.6 163L249.2 161.3L249.2 137.9L256 137.9L259 144.3L259.7 144.3L259.7 135.5L234.4 135.5L234.4 144.3L235.1 144.3L238.1 137.9L244.8 137.9L244.8 161.3L240.5 163L240.5 163.7ZM216.7 163.7L216.7 163L220.2 161.3L220.2 137.9L216.7 136.2L216.7 135.5L228.1 135.5L228.1 136.2L224.6 137.9L224.6 161.3L228.1 163L228.1 163.7ZM202.8 163.6C203.9 163.2 204.9 162.7 205.9 162C206.8 161.3 207.6 160.4 208.2 159.4C208.8 158.4 209.1 157.2 209.1 155.9C209.1 154.4 208.8 153.3 208.3 152.3C207.8 151.4 206.9 150.5 205.8 149.8C204.7 149 203.3 148.3 201.6 147.4C199.7 146.5 198.3 145.6 197.4 144.8C196.5 144 196.1 142.9 196.1 141.5C196.1 140.2 196.5 139.2 197.3 138.4C198.1 137.6 199.1 137.2 200.4 137.2C201.3 137.2 202.2 137.4 202.9 137.7C203.6 138 204.5 138.5 205.4 139.2L207.6 143.8L208.3 143.8L207.9 137C206.8 136.4 205.6 135.9 204.4 135.6C203.2 135.3 202 135.1 200.6 135.1C199.5 135.1 198.4 135.3 197.3 135.8C196.2 136.3 195.3 136.9 194.4 137.6C193.5 138.4 192.9 139.2 192.4 140.2C191.9 141.2 191.7 142.1 191.7 143.2C191.7 145.1 192.2 146.6 193.3 147.7C194.4 148.8 195.9 149.8 198 150.7C199.5 151.4 200.8 152.1 201.8 152.6C202.8 153.2 203.6 153.8 204.1 154.5C204.6 155.2 204.9 156.1 204.9 157.3C204.9 158.8 204.4 159.9 203.5 160.8C202.5 161.7 201.2 162.1 199.6 162.1C198.6 162.1 197.7 161.9 196.7 161.5C195.7 161.1 194.8 160.5 193.8 159.7L191.5 155.1L190.8 155.1L191.2 162.1C192.5 162.8 193.8 163.3 195.1 163.6C196.4 163.9 197.9 164.1 199.7 164.1C200.6 164.1 201.7 163.9 202.8 163.6M171.3 137.9L168.8 137.9L168.8 148.5L171.6 148.5C173.4 148.5 174.8 148 176 147C177.2 146 177.7 144.7 177.7 143.1C177.7 141.5 177.1 140.2 176 139.3C174.8 138.4 173.3 137.9 171.3 137.9M160.8 163.7L160.8 163L164.3 161.3L164.3 137.9L160.8 136.2L160.8 135.5L172.7 135.5C175.7 135.5 178 136.1 179.8 137.4C181.5 138.6 182.4 140.3 182.4 142.5C182.4 144.1 181.9 145.5 180.8 146.7C179.7 147.9 178.3 148.9 176.5 149.5L184.6 161.4L187.5 163L187.5 163.7L180.5 163.7L172.3 150.7L168.8 150.7L168.8 161.2L172 162.9L172 163.6L160.8 163.6ZM154.2 163.7L154.2 155.7L153.5 155.7L150.7 161.3L139.5 161.3L139.5 151L146.6 151L148.8 154.5L149.5 154.5L149.5 145.1L148.8 145.1L146.6 148.7L139.5 148.7L139.5 137.9L149.5 137.9L152.3 142.9L153 142.9L153 135.6L131.6 135.6L131.6 136.3L135.1 138L135.1 161.4L131.6 163.1L131.6 163.8L154.2 163.8ZM112 163.9L101.1 137.7L98.2 136.2L98.2 135.5L109.5 135.5L109.5 136.2L105.8 137.8L113.8 157L114 157L121.9 137.7L118.4 136.2L118.4 135.5L127.4 135.5L127.4 136.2L125 137.5L113.9 163.9ZM92.9 163.7L92.9 163L89.4 161.3L89.4 137.9L92.9 136.2L92.9 135.5L81.5 135.5L81.5 136.2L85 137.9L85 161.3L81.5 163L81.5 163.7ZM46.3 163.7L46.3 163L49.8 161.3L49.8 138L46.4 136.2L46.4 135.5L53.1 135.5L69.4 155.6L69.4 137.9L65 136.2L65 135.5L75.8 135.5L75.8 136.2L72.4 137.9L72.4 163.9L70.5 163.9L52.7 142.1L52.7 161.4L57.1 163.1L57.1 163.8L46.3 163.8ZM106.2 215.9C108.8 215 111 213.9 112.7 212.4L112.7 202.3L117 200.4L117 199.2L102.7 199.2L102.7 200.4L108 202.3L108 212.8C106.6 213.4 105.2 213.7 103.9 213.9C102.6 214.1 101.2 214.2 99.8 214.2C96.8 214.2 94 213.4 91.4 211.9C88.9 210.4 86.8 208.2 85.3 205.3C83.8 202.5 83 199 83 195C83 192 83.7 189.3 85.1 186.8C86.5 184.3 88.4 182.4 90.8 180.9C93.2 179.5 96.1 178.7 99.3 178.7C101 178.7 102.5 179 103.8 179.5C105.1 180 106.6 180.9 108.3 182.1L111.5 188.8L112.6 188.8L112.3 179.1C111.2 178.5 110 178 108.8 177.6C107.6 177.2 106.3 176.8 104.8 176.6C103.3 176.4 101.5 176.2 99.4 176.2C96.5 176.2 93.8 176.7 91.2 177.8C88.6 178.9 86.4 180.4 84.5 182.3C82.6 184.2 81.1 186.5 80 189.1C78.9 191.7 78.3 194.6 78.3 197.6C78.3 201.3 79.2 204.7 80.9 207.6C82.6 210.5 85 212.8 88 214.5C91 216.2 94.5 217 98.3 217C101 217.2 103.6 216.8 106.2 215.9M222.3 201.3C222.3 201.3 222.3 201.3 222.3 201.3L227.6 188.2L230.9 196.2C227.1 197.5 224.3 199.4 222.3 201.3M240.5 208.4L235.8 197C235.8 197 235.8 197 235.8 197C237 196.8 238.4 196.7 239.8 196.6L239 194.7C237.6 194.8 236.3 194.9 235 195.2C235 195.2 235 195.2 235 195.2L229.7 182.4L227.4 182.4L216.5 208.6L213.8 210L213.8 210.7L223 210.7L223 210L219.5 208.6C220 207.3 222.9 201 231.7 198.1C231.7 198.1 231.7 198.1 231.7 198.1L236 208.5L232.3 210L232.3 210.7L243.5 210.7L243.5 210ZM136.7 196.2L133.4 188.2L128.1 201.3C128.1 201.3 128.1 201.3 128.1 201.3C130.1 199.4 132.9 197.5 136.7 196.2M149.2 209.9L149.2 210.6L138 210.6L138 209.9L141.7 208.4L137.4 198C128.6 200.9 125.7 207.2 125.2 208.5L128.7 209.9L128.7 210.6L119.5 210.6L119.5 209.9L122.2 208.5L133.1 182.3L135.4 182.3L140.7 195.1C140.7 195.1 140.7 195.1 140.7 195.1C141.9 194.9 143.3 194.7 144.7 194.6L145.5 196.5C144.1 196.6 142.7 196.7 141.5 196.9C141.5 196.9 141.5 196.9 141.5 196.9L146.2 208.3ZM249.9 210.7L249.9 210L253.7 208.3L253.7 197.6L244.3 184.8L241.6 183.3L241.6 182.6L252.6 182.6L252.6 183.3L249.5 184.8L249.5 185L257.1 195.3L263.9 185.1L263.9 184.9L260.7 183.3L260.7 182.6L269.9 182.6L269.9 183.3L267.1 184.7L258.1 197.6L258.1 208.4L261.9 210.1L261.9 210.8L249.9 210.8ZM188 210.9L195.8 190.5L196.1 190.5L203.8 210.9L205.5 210.9L213.5 184.7L216.4 183.2L216.4 182.5L206.9 182.5L206.9 183.2L210.5 184.8L205.3 202.8L205 202.8L197.5 182.3L195.7 182.3L188.3 202.8L188 202.8L182.8 184.8L186.4 183.2L186.4 182.5L174.9 182.5L174.9 183.2L178.1 184.8L186 210.9ZM153.8 210.7L153.8 210L157.3 208.3L157.3 184.9L153.8 183.2L153.8 182.5L165.6 182.5L165.6 183.2L161.7 184.9L161.7 208.3L171.8 208.3L174.8 201L175.5 201L175.5 210.7ZM61 207.8L61 207.3L57.9 205.9L57.9 197.1L63.2 197.1L64.9 199.9L65.4 199.9L65.4 192.4L64.9 192.4L63.2 195.3L57.9 195.3L57.9 187.2L65.6 187.2L67.7 191.2L68.2 191.2L68.2 185.3L51.4 185.3L51.4 185.8L54.2 187.2L54.2 205.9L51.4 207.3L51.4 207.8ZM36.4 206.5C37.8 206.5 39 206.1 40.1 205.4C41.1 204.7 42 203.6 42.6 202.3C43.2 201 43.5 199.4 43.5 197.6C43.5 195.4 43.1 193.5 42.4 191.8C41.7 190.2 40.7 188.9 39.4 188C38.1 187.1 36.8 186.6 35.2 186.6C33.8 186.6 32.6 187 31.5 187.7C30.4 188.4 29.6 189.4 29 190.8C28.4 192.1 28.1 193.7 28.1 195.5C28.1 197.7 28.5 199.6 29.2 201.3C29.9 203 30.9 204.2 32.2 205.2C33.5 206 34.9 206.5 36.4 206.5M35.7 208.2C34.1 208.2 32.5 207.9 31.1 207.3C29.7 206.7 28.5 205.9 27.4 204.9C26.4 203.9 25.6 202.6 25 201.2C24.4 199.8 24.1 198.2 24.1 196.6C24.1 195 24.4 193.4 25 192C25.6 190.6 26.4 189.4 27.4 188.3C28.4 187.3 29.7 186.5 31.1 185.9C32.5 185.3 34 185 35.7 185C37.4 185 38.9 185.3 40.3 185.9C41.7 186.5 42.9 187.3 44 188.3C45 189.3 45.8 190.6 46.4 192C47 193.4 47.3 195 47.3 196.6C47.3 198.2 47 199.8 46.4 201.2C45.8 202.6 45 203.8 44 204.9C43 205.9 41.7 206.7 40.3 207.3C38.9 207.9 37.4 208.2 35.7 208.2M294.3 107.3L0 107.3L0 105.4L294.3 105.4ZM34.7 88.3C30.8 88.3 27.4 87.5 24.4 85.8C21.4 84.1 19 81.8 17.3 78.9C15.6 76 14.7 72.7 14.7 68.9C14.7 65.8 15.3 63 16.4 60.4C17.5 57.8 19 55.5 20.9 53.6C22.8 51.7 25.1 50.1 27.6 49.1C30.2 48 32.9 47.5 35.8 47.5C37.9 47.5 39.7 47.6 41.2 47.9C42.7 48.1 44 48.5 45.2 48.9C46.4 49.3 47.5 49.8 48.7 50.4L49 60.1L47.9 60.1L44.7 53.4C43 52.2 41.5 51.3 40.2 50.8C38.9 50.3 37.4 50 35.7 50C32.5 50 29.6 50.7 27.2 52.2C24.8 53.6 22.8 55.6 21.5 58.1C20.1 60.6 19.4 63.3 19.4 66.3C19.4 70.3 20.2 73.7 21.7 76.6C23.2 79.4 25.3 81.6 27.8 83.2C30.3 84.7 33.1 85.5 36.2 85.5C37.6 85.5 39 85.4 40.3 85.2C41.6 85 43 84.6 44.4 84.1L44.4 73.6L39.1 71.7L39.1 70.5L53.4 70.5L53.4 71.7L49.1 73.6L49.1 83.7C47.4 85.2 45.2 86.4 42.6 87.2C39.7 87.9 37.1 88.3 34.7 88.3M73.4 67.3L70.1 59.3L64.8 72.4C64.8 72.4 64.8 72.4 64.8 72.4C66.8 70.5 69.6 68.6 73.4 67.3M85.8 81.1L85.8 81.8L74.6 81.8L74.6 81.1L78.3 79.6L74 69.2C65.2 72.1 62.3 78.4 61.8 79.7L65.3 81.1L65.3 81.8L56.1 81.8L56.1 81.1L58.8 79.7L69.7 53.5L72 53.5L77.3 66.3C77.3 66.3 77.3 66.3 77.3 66.3C78.5 66.1 79.9 65.9 81.3 65.8L82.1 67.7C80.7 67.8 79.3 67.9 78.1 68.1C78.1 68.1 78.1 68.1 78.1 68.1L82.8 79.5ZM207.9 53.4L215.8 79.5L219 81.1L219 81.8L207.5 81.8L207.5 81.1L211.1 79.5L205.9 61.5L205.6 61.5L198.2 82L196.4 82L188.9 61.5L188.6 61.5L183.4 79.5L187 81.1L187 81.8L177.5 81.8L177.5 81.1L180.4 79.6L188.4 53.4L190.1 53.4L197.8 73.8L198.1 73.8L205.9 53.4ZM279.6 81.8L279.6 73.8L278.9 73.8L276.1 79.4L264.9 79.4L264.9 68.4L272 68.4L274.2 71.9L274.9 71.9L274.9 62.5L274.2 62.5L272 66.1L264.9 66.1L264.9 56L274.9 56L277.7 61L278.4 61L278.4 53.7L257 53.7L257 54.4L260.5 56.1L260.5 79.5L257 81.2L257 81.9L279.6 81.9ZM137.3 81.8L137.3 81.1L140.8 79.4L140.8 56L137.3 54.3L137.3 53.6L149.1 53.6L149.1 54.3L145.2 56L145.2 79.4L155.3 79.4L158.3 72.1L159 72.1L159 81.8ZM131 81.8L131 72.1L130.3 72.1L127.3 79.4L117.2 79.4L117.2 56L121.1 54.3L121.1 53.6L109.3 53.6L109.3 54.3L112.8 56L112.8 79.4L109.3 81.1L109.3 81.8ZM162.5 81.8L162.5 81.1L166 79.4L166 56L162.5 54.3L162.5 53.6L173.9 53.6L173.9 54.3L170.4 56L170.4 79.4L173.9 81.1L173.9 81.8ZM102 81.8L102 81.1L98.5 79.4L98.5 56L102 54.3L102 53.6L90.6 53.6L90.6 54.3L94.1 56L94.1 79.4L90.6 81.1L90.6 81.8ZM252 54.3L252 53.6L240.7 53.6L240.7 54.3L244.1 56L244.1 66C243.4 66.2 242.7 66.4 242 66.6C238.1 67.9 235.2 69.9 233.1 71.8C231.9 72.9 231 74 230.2 75L230.2 56L233.6 54.3L233.6 53.6L222.3 53.6L222.3 54.3L225.8 56L225.8 79.4L222.3 81.1L222.3 81.8L233.6 81.8L233.6 81.1L230.2 79.4L230.2 79.1C230.9 77.4 234.1 71.4 242.7 68.5C243.1 68.4 243.6 68.2 244.1 68.1L244.1 79.4L240.7 81.1L240.7 81.8L252 81.8L252 81.1L248.5 79.4L248.5 67.3C249.4 67.2 250.2 67.1 251.2 67.1L250.4 65.1C249.8 65.1 249.2 65.2 248.6 65.3L248.6 56ZM13.2 36.1C10.8 34.5 8.9 32.1 7.5 29.1C6.1 26.1 5.4 22.6 5.4 18.6C5.4 15.4 6 12.5 7.1 10.1C8.2 7.7 9.8 5.8 11.9 4.5C13.9 3.2 16.3 2.5 18.9 2.5C21.8 2.5 24.4 3.3 26.8 5C29.2 6.6 31.1 9 32.5 11.9C33.9 14.9 34.6 18.4 34.6 22.4C34.6 25.6 34 28.5 32.9 30.9C31.8 33.3 30.2 35.2 28.2 36.5C26.2 37.8 23.9 38.5 21.2 38.5C18.3 38.5 15.6 37.7 13.2 36.1M27.8 39.5C30.2 38.5 32.3 37.1 34 35.2C35.8 33.4 37.1 31.2 38.1 28.7C39.1 26.2 39.6 23.5 39.6 20.5C39.6 17.5 39.1 14.8 38.1 12.3C37.1 9.8 35.7 7.7 34 5.8C32.2 4 30.2 2.6 27.8 1.5C25.4 0.4 22.8 0 20 0C17.2 0 14.6 0.5 12.2 1.5C9.8 2.5 7.7 3.9 6 5.8C4.3 7.6 2.9 9.8 1.9 12.3C0.9 14.8 0.4 17.5 0.4 20.5C0.4 23.5 0.9 26.2 1.9 28.7C2.9 31.2 4.2 33.3 6 35.2C7.7 37 9.8 38.4 12.2 39.5C14.6 40.5 17.2 41 20 41C22.8 41 25.4 40.5 27.8 39.5M277 24.5C277 24.5 277 24.5 277 24.5L281.3 14L283.9 20.4C280.8 21.4 278.6 22.9 277 24.5M291.5 30.1L287.7 21L287.7 21C288.7 20.8 289.8 20.7 290.9 20.7L290.3 19.2C289.2 19.3 288.1 19.4 287.1 19.6C287.1 19.6 287.1 19.6 287.1 19.6L282.9 9.4L281 9.4L272.3 30.4L270.2 31.5L270.2 32L277.5 32L277.5 31.5L274.7 30.4C275.1 29.4 277.4 24.3 284.4 22L284.4 22L287.8 30.3L284.8 31.5L284.8 32L293.8 32L293.8 31.5ZM254.1 32L254.1 31.5L250.6 30.2L250.6 14.8L264.8 32.3L266.3 32.3L266.3 11.5L269 10.2L269 9.7L260.4 9.7L260.4 10.2L263.9 11.5L263.9 25.7L250.8 9.6L245.4 9.6L245.4 10.1L248.1 11.5L248.1 30.1L245.3 31.5L245.3 32ZM212.5 34.8L212.5 34.1L216 32.4L216 9L212.5 7.3L212.5 6.6L224.3 6.6L224.3 7.3L220.4 9L220.4 32.4L230.5 32.4L233.5 25.1L234.2 25.1L234.2 34.8ZM205.9 34.8L205.9 34.1L202.4 32.4L202.4 9L205.9 7.3L205.9 6.6L194.5 6.6L194.5 7.3L198 9L198 32.4L194.5 34.1L194.5 34.8ZM176.1 33.1C177.8 33.1 179.4 32.6 180.7 31.7C182 30.8 183 29.5 183.8 27.9C184.5 26.3 184.9 24.3 184.9 22.1C184.9 19.3 184.4 16.9 183.5 14.9C182.6 12.8 181.4 11.2 179.8 10.1C178.2 9 176.5 8.4 174.6 8.4C172.9 8.4 171.3 8.8 170 9.7C168.7 10.6 167.6 11.9 166.9 13.5C166.1 15.1 165.8 17.1 165.8 19.3C165.8 22.1 166.3 24.5 167.2 26.6C168.1 28.7 169.4 30.3 171 31.4C172.5 32.6 174.2 33.1 176.1 33.1M175.3 35.3C173.3 35.3 171.4 34.9 169.6 34.2C167.9 33.5 166.3 32.5 165 31.2C163.7 29.9 162.7 28.4 162 26.6C161.3 24.8 160.9 22.9 160.9 20.8C160.9 18.7 161.3 16.8 162 15C162.7 13.2 163.7 11.7 165 10.4C166.3 9.1 167.8 8.1 169.6 7.4C171.3 6.7 173.2 6.3 175.3 6.3C177.3 6.3 179.2 6.7 181 7.4C182.7 8.1 184.3 9.1 185.6 10.4C186.9 11.7 187.9 13.2 188.6 15C189.3 16.8 189.7 18.7 189.7 20.8C189.7 22.9 189.3 24.8 188.6 26.6C187.9 28.4 186.9 29.9 185.6 31.2C184.3 32.5 182.8 33.5 181 34.2C179.2 34.9 177.3 35.3 175.3 35.3M149.6 34.7C151 34.3 152.4 33.8 153.6 33.2L154.1 26.3L153.4 26.3L150.5 31.1C149.7 31.6 148.8 32.1 147.8 32.5C146.8 32.9 145.5 33.1 144.1 33.1C142.3 33.1 140.7 32.6 139.2 31.6C137.7 30.6 136.5 29.2 135.7 27.3C134.8 25.4 134.4 23.1 134.4 20.5C134.4 18.1 134.8 16.1 135.7 14.3C136.6 12.5 137.8 11.1 139.4 10.1C141 9.1 142.7 8.6 144.7 8.6C145.7 8.6 146.5 8.8 147.3 9.1C148.1 9.4 149 9.9 149.9 10.6L152.8 16.1L153.6 16.1L153.3 8.5C152.5 8.1 151.7 7.8 150.9 7.5C150.1 7.2 149.2 7 148.2 6.8C147.2 6.6 146 6.5 144.5 6.5C142.5 6.5 140.6 6.9 138.8 7.7C137 8.5 135.4 9.6 134 11C132.6 12.4 131.5 14 130.7 15.9C129.9 17.7 129.5 19.7 129.5 21.7C129.5 24.3 130.1 26.7 131.2 28.8C132.4 30.9 134 32.5 136.1 33.7C138.2 34.9 140.8 35.5 143.7 35.5C146.4 35.3 148.2 35.1 149.6 34.7M113.5 35.3C111.7 35.3 110.2 35.1 108.9 34.8C107.6 34.5 106.3 34 105 33.3L104.6 26.3L105.3 26.3L107.6 30.9C108.6 31.7 109.6 32.3 110.5 32.7C111.5 33.1 112.4 33.3 113.4 33.3C115 33.3 116.3 32.9 117.3 32C118.3 31.1 118.7 30 118.7 28.5C118.7 27.3 118.4 26.4 117.9 25.7C117.4 25 116.6 24.4 115.6 23.8C114.6 23.2 113.3 22.6 111.8 21.9C109.8 20.9 108.2 19.9 107.1 18.9C106 17.8 105.5 16.3 105.5 14.4C105.5 13.4 105.7 12.4 106.2 11.4C106.7 10.4 107.4 9.6 108.2 8.8C109.1 8 110 7.4 111.1 7C112.2 6.5 113.2 6.3 114.4 6.3C115.7 6.3 117 6.5 118.2 6.8C119.4 7.1 120.5 7.6 121.7 8.2L122.1 15L121.4 15L119.2 10.4C118.3 9.7 117.5 9.2 116.7 8.9C116 8.6 115.1 8.4 114.2 8.4C113 8.4 112 8.8 111.1 9.6C110.3 10.4 109.9 11.5 109.9 12.7C109.9 14.1 110.3 15.2 111.2 16C112.1 16.8 113.5 17.6 115.4 18.6C117.1 19.4 118.5 20.2 119.6 21C120.7 21.8 121.6 22.6 122.1 23.5C122.6 24.4 122.9 25.6 122.9 27.1C122.9 28.4 122.6 29.6 122 30.6C121.4 31.6 120.7 32.5 119.7 33.2C118.8 33.9 117.7 34.4 116.6 34.8C115.6 35.1 114.6 35.3 113.5 35.3M97.3 34.8L97.3 25.1L96.6 25.1L93.6 32.4L83.5 32.4L83.5 9L87.4 7.3L87.4 6.6L75.6 6.6L75.6 7.3L79.1 9L79.1 32.4L75.6 34.1L75.6 34.8ZM47.5 34.8L47.5 34.1L51 32.4L51 9L47.5 7.3L47.5 6.6L59.3 6.6L59.3 7.3L55.4 9L55.4 32.4L65.5 32.4L68.5 25.1L69.2 25.1L69.2 34.8Z" sodipodi:nodetypes="cccccccccccccccccccccccccccccccccccccccccccccccccccccccccccccccccccccccccccccccccccccccccccccccccccccccccccccccccccccccccccccccccccccccccccccccccccccccccccccccccccccccccccccccccccccccccccccccccccccccccccccccccccccccccccccccccccccccccccccccccccccccccccccccccccccccccccccccccccccccccccccccccccccccccccccccccccccccccccccccccccccccccccccccccccccccccccccccccccccccccccccccccccccccccccccccccccccccccccccccccccccccccccccccccccccccccccccccccccccccccccccccccccccccccccccccccccccccccccccccccccccccccccccccccccccccccccccccccccccccccccccccccccccccccccccccccccccccccccccccccccccccccccccccccccccccccccccccccccccccccccccccccccccccccccccccccccccccccccccccccccccccccccccccccccccccccccccccccccccccccccccccccccccccccccccccccccccccccccccccccccccccccccccccccccccccccccccccccccccccccccccccccccccccccccccccccccccccccccccccccccccccccccccccccccccccccccccccccccccccccccccccccccccccccccccccccccccccccc"/><g id="group0" transform="matrix(0.72 0 0 0.72 -105.12 -104.4)" fill="none">
  <path id="shape1" transform="translate(150.088274304447, 146.788274304447)" fill="none" stroke-opacity="0" stroke="#000000" stroke-width="0" stroke-linecap="square" stroke-linejoin="bevel" d="M116.812 9.31173C207.012 -21.4883 305.112 26.6117 335.912 116.812C366.712 207.012 318.612 305.112 228.412 335.912C138.212 366.712 40.1117 318.612 9.31173 228.412C-21.4883 138.212 26.6117 40.1117 116.812 9.31173Z" sodipodi:nodetypes="ccccc"/>
  <path id="shape2" transform="translate(318.7, 252.8)" fill="#aa0554" stroke-opacity="0" stroke="#000000" stroke-width="0" stroke-linecap="square" stroke-linejoin="bevel" d="M4.8 0.2L4.1 0L3.4 0.2C2.2 0.5 0 2 0 4.9L0 28.2L8 28.2L8 4.8C8.1 2.1 6 0.6 4.8 0.2Z" sodipodi:nodetypes="cccccccc"/>
  <path id="shape3" transform="translate(333.8, 254.8)" fill="#aa0554" stroke-opacity="0" stroke="#000000" stroke-width="0" stroke-linecap="square" stroke-linejoin="bevel" d="M4.8 5.8C4.8 1.3 2.4 0 2.4 0C2.4 0 0 1.3 0 4.1L0 27.5L4.8 29.2Z" sodipodi:nodetypes="cccccc"/>
  <path id="shape4" transform="translate(360.1, 261.5)" fill="#aa0554" stroke-opacity="0" stroke="#000000" stroke-width="0" stroke-linecap="square" stroke-linejoin="bevel" d="M0 8.7L0 8.8L5.5 8.8L5.5 0L5.4 0Z" sodipodi:nodetypes="cccccc"/>
  <path id="shape5" transform="translate(306.9, 254.8)" fill="#aa0554" stroke-opacity="0" stroke="#000000" stroke-width="0" stroke-linecap="square" stroke-linejoin="bevel" d="M2.4 0C2.4 0 0 1.3 0 5.8L0 29.2L4.8 27.5L4.8 4.1C4.7 1.3 2.4 0 2.4 0Z" sodipodi:nodetypes="cccccc"/>
  <path id="shape6" transform="translate(346, 328.6)" fill="#aa0554" stroke-opacity="0" stroke="#000000" stroke-width="0" stroke-linecap="square" stroke-linejoin="bevel" d="M4.7 0.2L4 0L3.3 0.2C2.2 0.5 0 2 0 4.8L0 24.7L7.9 24.7L7.9 4.8C8 2.1 5.9 0.6 4.7 0.2Z" sodipodi:nodetypes="cccccccc"/>
  <path id="shape7" transform="translate(291.5, 328.6)" fill="#aa0554" stroke-opacity="0" stroke="#000000" stroke-width="0" stroke-linecap="square" stroke-linejoin="bevel" d="M4.7 0.2L4 0L3.3 0.2C2.1 0.5 0 2 0 4.8L0 24.7L7.9 24.7L7.9 4.8C7.9 2.1 5.9 0.6 4.7 0.2Z" sodipodi:nodetypes="cccccccc"/>
  <path id="shape8" transform="translate(394, 428.1)" fill="#aa0554" stroke-opacity="0" stroke="#000000" stroke-width="0" stroke-linecap="square" stroke-linejoin="bevel" d="M2.8 13.3C2.8 13.3 2.8 13.3 2.8 13.3C3.4 10.7 4.6 7.7 6.9 4.6L0 0Z" sodipodi:nodetypes="ccccc"/>
  <path id="shape9" transform="translate(313.2, 319.4)" fill="#aa0554" stroke-opacity="0" stroke="#000000" stroke-width="0" stroke-linecap="square" stroke-linejoin="bevel" d="M10.2 0.2L9.6 0L9 0.2C5.9 1.2 0 5.1 0 13.1L0 34.2L19 34.2L19 13.1C19.1 3.5 10.5 0.3 10.2 0.2Z" sodipodi:nodetypes="cccccccc"/>
  <path id="shape10" transform="translate(275.2, 268.1)" fill="#aa0554" stroke-opacity="0" stroke="#000000" stroke-width="0" stroke-linecap="square" stroke-linejoin="bevel" d="M0 3.1C0 3.7 0.1 4.2 0.4 4.7C0.7 5.1 1.1 5.5 1.7 5.7C2.2 5.9 2.9 6.1 3.6 6.1C4.3 6.1 5 6 5.5 5.7C6 5.5 6.5 5.1 6.8 4.7C7.1 4.3 7.2 3.7 7.3 3.1C7.3 2.5 7.1 1.9 6.8 1.5C6.5 1 6.1 0.6 5.5 0.4C5 0.1 4.3 0 3.6 0C2.9 0 2.3 0.1 1.7 0.4C1.2 0.7 0.7 1 0.4 1.5C0.2 1.9 0 2.5 0 3.1Z" sodipodi:nodetypes="ccccccccccccc"/>
  <path id="shape11" transform="translate(204.7, 233)" fill="#aa0554" stroke-opacity="0" stroke="#000000" stroke-width="0" stroke-linecap="square" stroke-linejoin="bevel" d="M0 0L7 11.7C7 11.7 7 11.7 7 11.7C6.7 9 6.9 5.8 8 2.2Z" sodipodi:nodetypes="ccccc"/>
  <path id="shape12" transform="translate(236.4, 426.2)" fill="#aa0554" stroke-opacity="0" stroke="#000000" stroke-width="0" stroke-linecap="square" stroke-linejoin="bevel" d="M0 7.4C2.6 7 5.9 7 9.6 8.1L11.4 0L0 7.4C0 7.4 0 7.4 0 7.4Z" sodipodi:nodetypes="ccccc"/>
  <path id="shape13" transform="translate(275.8, 260.2)" fill="#aa0554" stroke-opacity="0" stroke="#000000" stroke-width="0" stroke-linecap="square" stroke-linejoin="bevel" d="M1.5 5.3C2 5.5 2.5 5.7 3.1 5.7C3.7 5.7 4.2 5.6 4.7 5.3C5.2 5.1 5.5 4.7 5.8 4.3C6.1 3.9 6.2 3.4 6.2 2.8C6.2 2.2 6.1 1.8 5.8 1.3C5.5 0.9 5.2 0.6 4.7 0.3C4.2 0.1 3.7 0 3.1 0C2.5 0 1.9 0.1 1.5 0.3C1 0.5 0.7 0.9 0.4 1.3C0.1 1.7 0 2.2 0 2.8C0 3.4 0.1 3.9 0.4 4.3C0.6 4.7 1 5.1 1.5 5.3Z" sodipodi:nodetypes="ccccccccccccc"/>
  <path id="shape14" transform="translate(150.088274304447, 146.788274304447)" fill="#a80050" stroke-opacity="0" stroke="#000000" stroke-width="0" stroke-linecap="square" stroke-linejoin="bevel" d="M228.412 335.912C318.612 305.112 366.712 207.012 335.912 116.812C305.112 26.6117 207.012 -21.4883 116.812 9.31173C26.6117 40.1117 -21.4883 138.212 9.31173 228.412C40.1117 318.612 138.212 366.812 228.412 335.912ZM36.9117 198.412C34.5117 198.512 32.6117 196.612 32.5117 194.312C32.4117 191.912 34.3117 190.012 36.6117 189.912C39.0117 189.812 40.9117 191.712 41.0117 194.012C41.1117 196.412 39.2117 198.412 36.9117 198.412ZM66.8117 254.312L66.4117 253.812L68.9117 248.712C68.9117 247.412 68.8117 246.412 68.6117 245.612C68.4117 244.812 68.0117 244.012 67.5117 243.212C66.4117 241.512 65.0117 240.312 63.4117 239.512C61.8117 238.712 60.0117 238.312 58.2117 238.512C56.4117 238.612 54.6117 239.312 52.8117 240.412C50.6117 241.812 49.0117 243.512 47.9117 245.312C46.9117 247.112 46.3117 249.012 46.4117 250.812C46.4117 252.712 47.0117 254.412 48.1117 256.112C48.5117 256.812 49.0117 257.412 49.5117 258.012C50.0117 258.612 50.6117 259.112 51.2117 259.712L57.0117 255.912L56.4117 252.012L56.9117 251.612L62.8117 260.612L62.3117 261.012L59.2117 259.612L53.8117 263.112C52.8117 262.812 51.7117 262.312 50.7117 261.612C49.7117 260.912 48.7117 260.112 47.8117 259.212C46.9117 258.312 46.1117 257.412 45.5117 256.412C44.4117 254.812 43.7117 253.112 43.4117 251.312C43.0117 249.612 43.0117 247.812 43.3117 246.212C43.6117 244.512 44.3117 243.012 45.2117 241.512C46.2117 240.012 47.4117 238.812 49.0117 237.812C50.7117 236.712 52.6117 235.912 54.5117 235.612C56.4117 235.312 58.3117 235.312 60.1117 235.812C61.9117 236.212 63.6117 237.012 65.2117 238.112C66.8117 239.212 68.1117 240.612 69.2117 242.212C70.0117 243.412 70.6117 244.512 71.0117 245.412C71.4117 246.312 71.7117 247.212 71.9117 248.012C72.1117 248.812 72.2117 249.712 72.3117 250.512ZM77.4117 205.312C74.7117 197.312 72.9117 188.912 72.2117 180.212L105.512 180.212L105.512 205.312ZM105.512 209.712L105.512 241.812L105.512 241.912L99.6117 241.912C90.8117 232.712 83.8117 221.712 79.0117 209.712ZM72.0117 175.412C72.0117 174.512 72.0117 173.512 72.0117 172.612C72.0117 170.112 72.1117 167.712 72.3117 165.212L105.612 165.212L105.612 175.412ZM102.712 292.612C101.512 291.912 100.412 291.212 99.3117 290.712L99.3117 290.712L96.8117 302.312L98.2117 305.112L97.8117 305.612L88.9117 299.512L89.3117 299.012L93.1117 299.912L95.4117 289.312L95.4117 289.312C86.9117 286.812 81.1117 290.212 80.0117 290.912L82.0117 293.912L81.6117 294.412L74.3117 289.412L74.7117 288.912L77.6117 289.312L100.512 274.612L102.312 275.912L99.5117 288.912C99.5117 288.912 99.5117 288.912 99.5117 288.912C100.612 289.412 101.712 290.012 102.912 290.712ZM158.112 246.312L137.012 266.812C124.712 262.112 113.512 255.112 104.112 246.312ZM123.912 118.512C123.412 117.812 123.112 116.912 123.112 116.012C123.112 115.112 123.312 114.312 123.812 113.612C124.312 112.912 125.012 112.312 125.812 111.912C126.712 111.512 127.612 111.312 128.712 111.312C129.812 111.312 130.812 111.512 131.612 111.912C132.512 112.312 133.112 112.912 133.612 113.612C134.112 114.312 134.312 115.112 134.312 116.012C134.312 117.012 134.012 117.812 133.512 118.512C133.012 119.212 132.312 119.712 131.412 119.912L131.412 120.012C132.112 120.112 132.712 120.412 133.212 120.812C133.712 121.212 134.212 121.812 134.512 122.412C134.812 123.012 135.012 123.712 135.012 124.512C135.012 125.512 134.712 126.312 134.212 127.112C133.712 127.912 132.912 128.412 132.012 128.912C131.012 129.312 129.912 129.512 128.712 129.512C127.512 129.512 126.312 129.312 125.412 128.912C124.412 128.512 123.712 127.912 123.212 127.112C122.712 126.312 122.412 125.512 122.412 124.512C122.412 123.712 122.512 123.012 122.912 122.412C123.212 121.812 123.612 121.212 124.212 120.812C124.712 120.412 125.412 120.112 126.012 120.012L126.012 119.912C125.112 119.812 124.412 119.312 123.912 118.512ZM172.612 139.212C169.812 139.212 167.512 141.512 167.512 144.312C167.512 145.012 167.612 145.612 167.812 146.212L156.912 153.912L152.012 153.912L152.012 105.912L163.212 101.812L182.112 101.812L193.312 105.912L193.312 153.912L188.412 153.912L177.412 146.212C177.612 145.612 177.812 145.012 177.812 144.312C177.712 141.512 175.512 139.212 172.612 139.212ZM158.312 158.112L172.612 148.112L187.012 158.112L217.912 158.112L217.912 168.412L188.412 168.412L172.712 157.412L157.012 168.412L127.512 168.412L127.512 158.112ZM220.412 123.512L220.412 125.812L218.112 125.812L218.112 129.212L215.612 129.212L215.612 125.812L207.212 125.812L207.212 123.612L214.812 111.612L218.112 111.612L218.112 123.512ZM183.612 241.812L183.612 233.912C183.612 229.712 181.012 226.012 177.112 224.512L176.112 224.112C173.812 223.212 171.412 223.212 169.112 224.112L168.112 224.512C164.212 226.012 161.612 229.712 161.612 233.912L161.612 241.812L127.112 241.812L127.112 216.812L218.012 216.812L218.012 241.812ZM218.112 241.812L218.112 241.812L183.612 241.912L183.612 241.812ZM161.712 241.812L161.712 241.812L127.212 241.912L127.212 241.812ZM127.512 212.412L127.512 172.712L158.312 172.712L172.612 162.712L187.012 172.712L217.912 172.712L217.912 212.412ZM122.612 141.912L122.612 241.912L110.412 241.912L110.412 141.912L114.512 141.912L114.512 150.312L118.612 150.312L118.612 141.912ZM117.012 129.312L114.312 129.312L114.312 114.212L114.212 114.212L109.912 117.012L109.912 114.412L114.412 111.512L117.012 111.512ZM147.912 322.512L127.712 317.812L127.812 317.212L131.412 316.412L136.512 294.712L133.712 292.412L133.812 291.812L144.812 294.412L144.712 295.012L140.712 295.712L135.612 317.412L145.012 319.612L149.412 313.512L150.012 313.612ZM172.612 273.312C161.812 273.312 151.412 271.612 141.712 268.512L164.212 246.412L181.912 246.412L204.212 268.312C194.212 271.512 183.612 273.312 172.612 273.312ZM211.012 294.612L207.812 320.412L206.212 320.712L195.612 302.812L195.312 302.812L191.412 323.212L189.812 323.512L178.012 300.312L174.712 299.412L174.612 298.812L185.412 296.912L185.512 297.512L182.412 299.612L190.312 315.612L190.512 315.612L194.012 295.212L195.712 294.912L206.112 312.912L206.312 312.912L208.212 295.212L204.512 294.312L204.412 293.712L213.312 292.112L213.412 292.712ZM208.812 266.612L187.912 246.412L241.112 246.412C231.812 255.012 220.912 261.912 208.812 266.612ZM232.312 121.612C232.012 121.012 231.612 120.612 231.012 120.312C230.512 120.012 229.812 119.812 229.112 119.812C228.612 119.812 228.012 119.912 227.512 120.112C227.012 120.312 226.512 120.512 226.212 120.812L223.812 120.412L224.812 111.512L234.512 111.512L234.512 113.812L227.012 113.812L226.412 118.712L226.512 118.712C226.812 118.412 227.312 118.112 227.912 117.912C228.512 117.712 229.112 117.612 229.712 117.612C230.812 117.612 231.712 117.912 232.612 118.412C233.412 118.912 234.112 119.612 234.612 120.512C235.112 121.412 235.312 122.412 235.312 123.512C235.312 124.612 235.112 125.712 234.512 126.612C234.012 127.512 233.312 128.212 232.312 128.712C231.412 129.212 230.312 129.512 229.212 129.512C228.112 129.512 227.212 129.312 226.312 128.912C225.412 128.512 224.812 127.912 224.212 127.212C223.712 126.512 223.412 125.612 223.412 124.712L226.012 124.712C226.112 125.512 226.412 126.112 227.012 126.612C227.612 127.112 228.312 127.312 229.212 127.312C229.912 127.312 230.512 127.112 231.012 126.812C231.512 126.512 231.912 126.112 232.212 125.512C232.512 124.912 232.712 124.312 232.712 123.612C232.712 122.812 232.612 122.212 232.312 121.612ZM226.612 141.912L226.612 150.312L230.712 150.312L230.712 141.912L234.712 141.912L234.712 241.912L222.512 241.912L222.512 141.912ZM273.012 180.212C272.312 188.912 270.612 197.312 267.812 205.312L239.712 205.312L239.712 180.212ZM239.712 175.412L239.712 165.212L273.012 165.212C273.212 167.612 273.312 170.112 273.312 172.612C273.312 173.512 273.312 174.512 273.312 175.412ZM266.212 209.712C261.412 221.812 254.412 232.712 245.612 241.912L239.712 241.912L239.712 209.712ZM259.512 296.712L259.112 296.212L261.312 293.012L252.312 287.012C246.912 294.012 248.012 300.612 248.312 301.912L251.912 301.112L252.312 301.612L245.012 306.512L244.612 306.012L246.012 303.412L240.612 276.712L242.512 275.412L253.612 282.712C253.612 282.712 253.612 282.712 253.612 282.712C254.512 281.912 255.412 281.012 256.512 280.212L258.212 281.312C257.112 282.112 256.112 282.912 255.212 283.812C255.212 283.812 255.212 283.812 255.212 283.812L265.112 290.312L268.212 290.012L268.612 290.512ZM292.912 264.712L292.412 264.312L293.212 260.412L284.812 254.512L269.612 254.812L267.012 256.112L266.512 255.712L272.512 247.112L273.012 247.512L272.512 250.812L272.612 250.912L284.712 250.712L280.512 239.812L280.412 239.712L277.412 241.312L276.912 240.912L282.012 233.712L282.512 234.112L282.112 237.012L287.212 251.112L295.612 257.012L299.012 255.012L299.512 255.412ZM313.812 198.812C311.312 198.912 309.312 197.012 309.212 194.512C309.112 192.012 311.012 190.012 313.512 189.912C316.012 189.812 318.012 191.712 318.112 194.212C318.112 196.712 316.212 198.812 313.812 198.812ZM314.112 124.212L314.812 120.612L315.412 120.412L318.112 130.812L317.512 131.012L315.112 128.312L297.512 132.912C298.612 133.312 299.912 133.912 301.212 134.712C303.512 136.212 306.012 138.312 308.212 141.612C308.612 142.212 308.912 142.812 309.312 143.412L318.512 141.012L319.212 137.412L319.812 137.212L322.512 147.612L321.912 147.812L319.512 145.012L311.012 147.212C311.212 147.712 311.412 148.312 311.612 148.812L310.012 150.012C309.712 149.212 309.512 148.412 309.212 147.612L298.012 150.512L297.312 154.112L296.712 154.312L294.012 143.912L294.612 143.712L297.012 146.412L307.412 143.712C307.212 143.312 306.912 142.912 306.712 142.512C302.012 135.312 295.612 133.812 293.912 133.612L293.612 133.712L292.812 137.212L292.212 137.412L289.512 127.012L290.112 126.812L292.512 129.612ZM255.112 76.7117L258.012 77.8117L281.812 67.2117L282.912 68.5117L273.012 86.8117L273.212 87.0117L292.712 79.8117L293.812 81.0117L280.012 103.012L280.912 106.312L280.412 106.712L273.212 98.5117L273.712 98.1117L277.112 99.7117L286.812 84.7117L286.612 84.5117L267.312 92.0117L266.212 90.7117L276.212 72.5117L276.012 72.3117L259.912 79.8117L261.012 83.4117L260.512 83.8117L254.612 77.0117ZM225.112 58.7117L228.812 58.8117L239.012 39.0117L236.812 36.0117L237.112 35.4117L246.712 40.4117L246.412 41.0117L242.712 40.9117L232.512 60.7117L234.712 63.6117L234.412 64.2117L224.812 59.2117ZM179.412 47.1117L182.912 45.9117L186.012 23.9117L183.012 21.8117L183.112 21.2117L194.212 22.7117L194.112 23.3117L190.212 24.4117L187.112 46.5117L196.612 47.8117L200.412 41.3117L201.012 41.4117L199.712 50.5117L179.212 47.6117ZM272.512 160.612L268.612 160.612C266.012 139.312 256.412 119.612 241.012 104.212C223.912 87.1117 201.512 77.2117 177.512 76.0117C177.312 74.8117 177.212 73.5117 177.112 72.1117C226.612 74.3117 266.812 112.112 272.512 160.612ZM172.312 72.0117C172.412 72.0117 172.512 72.0117 172.612 72.0117C172.712 72.0117 172.812 72.0117 173.012 72.0117C173.512 78.6117 174.812 86.2117 177.612 88.7117C183.112 93.7117 189.412 94.0117 191.312 102.612L182.112 99.3117L163.212 99.3117L154.112 102.612C156.012 93.9117 162.312 93.6117 167.812 88.7117C170.512 86.1117 171.812 78.6117 172.312 72.0117ZM138.112 25.1117L138.212 25.7117L135.012 28.1117L140.212 49.8117L149.612 47.6117L150.812 40.1117L151.412 39.9117L153.512 48.9117L133.312 53.7117L133.112 53.1117L135.912 50.8117L130.912 29.2117L127.312 28.4117L127.112 27.8117ZM168.212 72.1117C168.112 73.6117 167.912 74.9117 167.812 76.0117C143.812 77.2117 121.412 87.1117 104.212 104.212C88.8117 119.612 79.2117 139.312 76.6117 160.612L72.7117 160.612C78.4117 112.112 118.712 74.2117 168.212 72.1117ZM94.8117 42.5117L95.2117 43.0117L93.3117 46.2117L105.412 64.9117L109.012 64.5117L109.412 65.0117L100.312 70.9117L99.9117 70.4117L101.812 67.2117L89.7117 48.5117L86.0117 48.9117L85.6117 48.4117ZM51.3117 81.2117L64.2117 84.5117C64.2117 84.5117 64.2117 84.5117 64.2117 84.5117C64.7117 83.4117 65.4117 82.3117 66.1117 81.2117L68.0117 81.7117C67.2117 82.8117 66.6117 83.9117 66.0117 85.0117C66.0117 85.0117 66.0117 85.0117 66.0117 85.0117L77.5117 87.9117L80.3117 86.6117L80.8117 87.0117L74.3117 95.6117L73.8117 95.2117L74.8117 91.5117L64.3117 88.7117C61.5117 97.1117 64.7117 103.012 65.3117 104.112L68.4117 102.212L68.9117 102.612L63.6117 109.712L63.1117 109.312L63.6117 106.412L49.8117 82.9117ZM25.1117 135.912C25.4117 134.512 25.8117 133.312 26.2117 132.412C26.6117 131.512 27.0117 130.612 27.5117 129.912C28.0117 129.212 28.5117 128.512 29.0117 127.912L35.7117 129.212L35.6117 129.812L30.2117 131.512C29.3117 132.412 28.6117 133.112 28.1117 133.812C27.7117 134.512 27.3117 135.312 27.1117 136.312C26.6117 138.312 26.7117 140.112 27.2117 141.812C27.7117 143.512 28.7117 145.012 30.1117 146.312C31.5117 147.512 33.2117 148.412 35.2117 148.912C37.8117 149.512 40.1117 149.612 42.1117 149.112C44.1117 148.612 45.8117 147.712 47.1117 146.412C48.4117 145.112 49.3117 143.512 49.8117 141.512C50.0117 140.712 50.1117 140.012 50.2117 139.212C50.3117 138.412 50.3117 137.612 50.2117 136.812L43.4117 135.212L40.9117 138.312L40.3117 138.212L42.8117 127.812L43.4117 128.012L44.5117 131.212L50.7117 132.712C51.2117 133.712 51.6117 134.712 51.8117 136.012C52.0117 137.212 52.1117 138.512 52.1117 139.712C52.1117 141.012 52.0117 142.212 51.7117 143.312C51.3117 145.212 50.5117 146.912 49.5117 148.412C48.5117 149.912 47.3117 151.112 45.8117 152.012C44.4117 152.912 42.8117 153.512 41.1117 153.812C39.4117 154.112 37.6117 154.012 35.8117 153.612C33.8117 153.112 32.0117 152.312 30.5117 151.112C29.0117 149.912 27.7117 148.612 26.7117 146.912C25.7117 145.312 25.1117 143.512 24.8117 141.712C24.6117 139.812 24.7117 137.812 25.1117 135.912Z" sodipodi:nodetypes="cccccccccccccccccccccccccccccccccccccccccccccccccccccccccccccccccccccccccccccccccccccccccccccccccccccccccccccccccccccccccccccccccccccccccccccccccccccccccccccccccccccccccccccccccccccccccccccccccccccccccccccccccccccccccccccccccccccccccccccccccccccccccccccccccccccccccccccccccccccccccccccccccccccccccccccccccccccccccccccccccccccccccccccccccccccccccccccccccccccccccccccccccccccccccccccccccccccccccccccccccccccccccccccccccccccccccccccccccccccccccccccccccccccccccccccccccccccccccccccccccccccccccccccccccccccccccccccccccccccccccccccccccccccccccccccccccccccccc"/>
  <path id="shape15" transform="translate(182.596028616388, 336.696224624771)" fill="#ffffff" stroke-opacity="0" stroke="#000000" stroke-width="0" stroke-linecap="square" stroke-linejoin="bevel" d="M4.10397 0.00377537C1.70397 0.103775 -0.0960286 2.00378 0.00397139 4.40378C0.103971 6.80378 2.00397 8.60378 4.40397 8.50378C6.80397 8.40378 8.60397 6.50378 8.50397 4.10378C8.40397 1.80378 6.50397 -0.0962246 4.10397 0.00377537Z" sodipodi:nodetypes="ccccc"/>
  <path id="shape16" transform="translate(277.8, 438.5)" fill="#ffffff" stroke-opacity="0" stroke="#000000" stroke-width="0" stroke-linecap="square" stroke-linejoin="bevel" d="M17.3 27.9L7.9 25.7L13 4L17 3.2L17.1 2.6L6.2 0L6 0.6L8.8 3L3.8 24.7L0.2 25.5L0 26.1L20.2 30.8L22.3 21.9L21.7 21.7Z" sodipodi:nodetypes="ccccccccccccccc"/>
  <path id="shape17" transform="translate(193.186156172725, 382.025566452383)" fill="#ffffff" stroke-opacity="0" stroke="#000000" stroke-width="0" stroke-linecap="square" stroke-linejoin="bevel" d="M27.9138 9.97443C27.5138 9.07443 26.9138 7.97443 26.1138 6.77443C25.0138 5.07443 23.7138 3.67443 22.1138 2.67443C20.5138 1.57443 18.8138 0.874433 17.0138 0.374433C15.2138 -0.0255665 13.3138 -0.125567 11.4138 0.174433C9.51384 0.474433 7.71384 1.17443 5.91384 2.37443C4.31384 3.37443 3.01384 4.67443 2.11384 6.07443C1.11384 7.57443 0.513844 9.07443 0.213844 10.7744C-0.0861561 12.4744 -0.0861561 14.1744 0.313844 15.8744C0.713844 17.6744 1.41384 19.2744 2.41384 20.9744C3.01384 21.9744 3.81384 22.8744 4.71384 23.7744C5.61384 24.6744 6.61384 25.4744 7.61384 26.1744C8.61384 26.8744 9.71384 27.3744 10.7138 27.6744L16.1138 24.1744L19.2138 25.5744L19.7138 25.1744L13.8138 16.1744L13.3138 16.5744L13.9138 20.4744L8.11384 24.2744C7.41384 23.7744 6.91384 23.1744 6.41384 22.5744C5.91384 21.9744 5.41384 21.3744 5.01384 20.6744C3.91384 18.9744 3.41384 17.2744 3.31384 15.3744C3.31384 13.4744 3.81384 11.6744 4.81384 9.87443C5.81384 8.07443 7.51384 6.47443 9.71384 4.97443C11.4138 3.87443 13.2138 3.17443 15.1138 3.07443C16.9138 2.97443 18.7138 3.27443 20.3138 4.07443C21.9138 4.87443 23.3138 6.17443 24.4138 7.77443C24.9138 8.57443 25.3138 9.47443 25.5138 10.1744C25.7138 10.9744 25.8138 11.9744 25.8138 13.2744L23.3138 18.3744L23.7138 18.8744L29.3138 14.9744C29.2138 14.1744 29.1138 13.2744 28.9138 12.4744C28.6138 11.7744 28.3138 10.9744 27.9138 9.97443Z" sodipodi:nodetypes="ccccccccccccccccccccccccccccccccccc"/>
  <path id="shape18" transform="translate(324.8, 438.9)" fill="#ffffff" stroke-opacity="0" stroke="#000000" stroke-width="0" stroke-linecap="square" stroke-linejoin="bevel" d="M29.8 1.5L29.9 2.2L33.6 3.1L31.7 20.8L31.5 20.8L21 2.9L19.3 3.2L15.8 23.6L15.6 23.7L7.7 7.6L10.9 5.6L10.7 4.9L0 6.8L0.1 7.5L3.4 8.4L15.2 31.6L16.8 31.3L20.7 10.8L20.9 10.8L31.5 28.7L33.2 28.4L36.3 2.5L38.8 0.6L38.7 0Z" sodipodi:nodetypes="ccccccccccccccccccccccccc"/>
  <path id="shape19" transform="translate(224.6, 421.3)" fill="#ffffff" stroke-opacity="0" stroke="#000000" stroke-width="0" stroke-linecap="square" stroke-linejoin="bevel" d="M25.2 14.3L28 1.3L26.2 0L3.3 14.7L0.4 14.3L0 14.8L7.3 19.8L7.7 19.3L5.7 16.3C6.8 15.6 12.6 12.2 21.1 14.7L21.1 14.7L18.8 25.3L15 24.4L14.6 24.9L23.5 31L23.9 30.5L22.5 27.7L25 16.1L25 16.1C26.1 16.6 27.2 17.2 28.4 18L28.8 16C27.5 15.4 26.4 14.8 25.2 14.3C25.2 14.3 25.2 14.3 25.2 14.3ZM21.4 12.9C17.7 11.9 14.5 11.8 11.8 12.2C11.8 12.2 11.8 12.2 11.8 12.2L23.2 4.7Z" sodipodi:nodetypes="cccccccccccccccccccccccccccc"/>
  <path id="shape20" transform="translate(416.6, 380.4)" fill="#ffffff" stroke-opacity="0" stroke="#000000" stroke-width="0" stroke-linecap="square" stroke-linejoin="bevel" d="M29.1 23.3L20.7 17.4L15.6 3.3L16.1 0.4L15.5 0L10.5 7.2L11 7.6L14 6L14.1 6.1L18.3 17L6.2 17.2L6 17.1L6.5 13.9L6 13.5L0 22.1L0.5 22.4L3.1 21.2L18.3 20.9L26.7 26.8L25.9 30.7L26.4 31.1L33.1 21.7L32.5 21.3Z" sodipodi:nodetypes="cccccccccccccccccccccccc"/>
  <path id="shape21" transform="translate(329.5, 168)" fill="#ffffff" stroke-opacity="0" stroke="#000000" stroke-width="0" stroke-linecap="square" stroke-linejoin="bevel" d="M21.7 20.3L21.1 20.2L17.3 26.7L7.7 25.4L10.8 3.3L14.7 2.2L14.8 1.5L3.6 0L3.5 0.6L6.6 2.7L3.5 24.7L0 25.9L0 26.5L20.5 29.4Z" sodipodi:nodetypes="ccccccccccccccc"/>
  <path id="shape22" transform="translate(439.7, 267.5)" fill="#ffffff" stroke-opacity="0" stroke="#000000" stroke-width="0" stroke-linecap="square" stroke-linejoin="bevel" d="M0.6 6.4L0 6.6L2.7 17L3.3 16.8L4.1 13.3L4.4 13.2C6.1 13.5 12.5 14.9 17.2 22.1C17.4 22.5 17.7 22.9 17.9 23.3L7.5 26L5.1 23.3L4.5 23.5L7.2 33.9L7.8 33.7L8.5 30.1L19.7 27.2C20 28 20.3 28.7 20.5 29.6L22.1 28.4C21.9 27.8 21.7 27.3 21.5 26.8L30 24.6L32.4 27.4L33 27.2L30.3 16.8L29.7 17L29 20.6L19.8 23C19.4 22.4 19.1 21.8 18.7 21.2C16.5 17.9 14 15.7 11.7 14.3C10.4 13.5 9.1 12.9 8 12.5L25.6 7.9L28 10.6L28.6 10.4L25.9 0L25.3 0.2L24.6 3.8L3.1 9.5Z" sodipodi:nodetypes="cccccccccccccccccccccccccccccccccccc"/>
  <path id="shape23" transform="translate(374.9, 182.3)" fill="#ffffff" stroke-opacity="0" stroke="#000000" stroke-width="0" stroke-linecap="square" stroke-linejoin="bevel" d="M9.9 28.2L7.8 25.2L17.9 5.5L21.6 5.5L21.9 4.9L12.3 0L12 0.5L14.2 3.5L4 23.3L0.3 23.2L0 23.8L9.7 28.8Z" sodipodi:nodetypes="ccccccccccccc"/>
  <path id="shape24" transform="translate(459.296227833607, 336.796227833607)" fill="#ffffff" stroke-opacity="0" stroke="#000000" stroke-width="0" stroke-linecap="square" stroke-linejoin="bevel" d="M4.30377 0.00377217C1.80377 0.103772 -0.0962278 2.10377 0.00377217 4.60377C0.103772 7.10377 2.10377 9.00377 4.60377 8.90377C7.10377 8.80377 9.00377 6.80377 8.90377 4.30377C8.80377 1.80377 6.70377 -0.0962278 4.30377 0.00377217Z" sodipodi:nodetypes="ccccc"/>
  <path id="shape25" transform="translate(235.8, 189.3)" fill="#ffffff" stroke-opacity="0" stroke="#000000" stroke-width="0" stroke-linecap="square" stroke-linejoin="bevel" d="M4 6L16.1 24.7L14.2 27.9L14.6 28.4L23.7 22.5L23.3 22L19.7 22.4L7.6 3.7L9.4 0.6L9.1 0L0 5.9L0.3 6.5Z" sodipodi:nodetypes="ccccccccccccc"/>
  <path id="shape26" transform="translate(277.3, 171.9)" fill="#ffffff" stroke-opacity="0" stroke="#000000" stroke-width="0" stroke-linecap="square" stroke-linejoin="bevel" d="M3.7 4.1L8.8 25.7L6 28.1L6.2 28.7L26.3 23.9L24.2 14.9L23.6 15.1L22.4 22.6L13 24.8L7.8 3.1L11.1 0.6L10.9 0L0 2.6L0.1 3.3Z" sodipodi:nodetypes="ccccccccccccccc"/>
  <path id="shape27" transform="translate(200.3, 228.1)" fill="#ffffff" stroke-opacity="0" stroke="#000000" stroke-width="0" stroke-linecap="square" stroke-linejoin="bevel" d="M13.1 28.1L13.6 28.5L18.9 21.4L18.4 21L15.3 22.9C14.6 21.8 11.4 15.9 14.3 7.5L24.8 10.3L23.8 14L24.3 14.4L30.8 5.8L30.3 5.4L27.5 6.7L16 3.8C16 3.8 16 3.8 16 3.8C16.6 2.7 17.2 1.6 18 0.5L16.1 0C15.3 1.1 14.7 2.2 14.2 3.3C14.2 3.3 14.2 3.3 14.2 3.3L1.3 0L0 1.8L13.8 25.3ZM11.4 16.6C11.4 16.6 11.4 16.6 11.4 16.6L4.4 4.9L12.4 7C11.3 10.7 11.1 13.9 11.4 16.6Z" sodipodi:nodetypes="ccccccccccccccccccccccccccc"/>
  <path id="shape28" transform="translate(174.87504953291, 274.6)" fill="#ffffff" stroke-opacity="0" stroke="#000000" stroke-width="0" stroke-linecap="square" stroke-linejoin="bevel" d="M2.02495 19.1C3.02495 20.7 4.22495 22.1 5.82495 23.3C7.32495 24.5 9.12495 25.3 11.125 25.8C12.925 26.2 14.725 26.3 16.425 26C18.125 25.7 19.725 25.1 21.125 24.2C22.525 23.3 23.725 22.1 24.825 20.6C25.825 19.1 26.525 17.4 27.025 15.5C27.325 14.4 27.425 13.2 27.425 11.9C27.425 10.6 27.325 9.4 27.125 8.2C26.925 7 26.525 5.9 26.025 4.9L19.825 3.4L18.725 0.2L18.125 0L15.625 10.4L16.225 10.5L18.725 7.4L25.525 9C25.625 9.8 25.625 10.6 25.525 11.4C25.425 12.2 25.325 12.9 25.125 13.7C24.625 15.6 23.825 17.2 22.425 18.6C21.125 19.9 19.425 20.8 17.425 21.3C15.425 21.8 13.125 21.7 10.525 21.1C8.52495 20.6 6.82495 19.8 5.42495 18.5C4.02495 17.3 3.12495 15.8 2.52495 14C2.02495 12.3 1.92495 10.4 2.42495 8.5C2.62495 7.5 3.02495 6.7 3.42495 6C3.82495 5.3 4.52495 4.6 5.52495 3.7L10.925 2L11.025 1.4L4.32495 0.1C3.82495 0.7 3.22495 1.4 2.82495 2.1C2.32495 2.8 1.92495 3.6 1.52495 4.6C1.12495 5.5 0.824951 6.7 0.424951 8.1C-0.0750495 10 -0.0750495 12 0.124951 13.8C0.424951 15.7 1.02495 17.5 2.02495 19.1Z" sodipodi:nodetypes="ccccccccccccccccccccccccccccccccccc"/>
  <path id="shape29" transform="translate(390.6, 422.4)" fill="#ffffff" stroke-opacity="0" stroke="#000000" stroke-width="0" stroke-linecap="square" stroke-linejoin="bevel" d="M24.5 14.9L14.6 8.4C14.6 8.4 14.6 8.4 14.6 8.4C15.5 7.6 16.5 6.7 17.6 5.9L15.9 4.8C14.8 5.6 13.9 6.5 13 7.3C13 7.3 13 7.3 13 7.3L1.9 0L0 1.3L5.4 28L4 30.6L4.4 31.1L11.7 26.2L11.3 25.7L7.7 26.5C7.4 25.2 6.3 18.6 11.7 11.6L20.7 17.6L18.5 20.8L18.9 21.3L27.8 15.3L27.4 14.8ZM6.2 19C6.2 19 6.2 19 6.2 19L3.4 5.7L10.3 10.3C8 13.4 6.8 16.4 6.2 19Z" sodipodi:nodetypes="ccccccccccccccccccccccccccc"/>
  <path id="shape30" transform="translate(404.7, 214.1)" fill="#ffffff" stroke-opacity="0" stroke="#000000" stroke-width="0" stroke-linecap="square" stroke-linejoin="bevel" d="M6.4 16.2L5.3 12.6L21.4 5.1L21.6 5.3L11.5 23.5L12.7 24.7L32 17.3L32.1 17.5L22.4 32.4L19 30.8L18.6 31.2L25.7 39.5L26.2 39L25.3 35.7L39.1 13.8L38.1 12.5L18.5 19.7L18.3 19.5L28.2 1.2L27.1 0L3.4 10.5L0.5 9.4L0 9.8L5.9 16.6Z" sodipodi:nodetypes="ccccccccccccccccccccccccc"/>
  <path id="shape31" transform="translate(222.8, 218.9)" fill="#ffffff" stroke-opacity="0" stroke="#000000" stroke-width="0" stroke-linecap="square" stroke-linejoin="bevel" d="M0 88.5L3.9 88.5C6.5 67.2 16.1 47.5 31.5 32.1C48.6 15 71 5.1 95.1 3.9C95.3 2.7 95.4 1.4 95.5 0C46 2.1 5.7 40 0 88.5Z" sodipodi:nodetypes="cccccc"/>
  <path id="shape32" transform="translate(222, 312)" fill="#ffffff" stroke-opacity="0" stroke="#000000" stroke-width="0" stroke-linecap="square" stroke-linejoin="bevel" d="M33.6 0L0.3 0C0.1 2.4 0 4.9 0 7.4C0 8.3 0 9.3 0 10.2L33.5 10.2L33.5 0Z" sodipodi:nodetypes="ccccccc"/>
  <path id="shape33" transform="translate(304.2, 218.8)" fill="#ffffff" stroke-opacity="0" stroke="#000000" stroke-width="0" stroke-linecap="square" stroke-linejoin="bevel" d="M0 30.6L9.1 27.3L28 27.3L37.2 30.6C35.3 21.9 29 21.6 23.5 16.7C20.7 14.2 19.5 6.7 18.9 0C18.8 0 18.6 0 18.5 0C18.4 0 18.3 0 18.2 0C17.7 6.6 16.4 14.2 13.6 16.7C8.2 21.6 1.9 21.9 0 30.6Z" sodipodi:nodetypes="cccccccccc"/>
  <path id="shape34" transform="translate(327.2, 218.9)" fill="#ffffff" stroke-opacity="0" stroke="#000000" stroke-width="0" stroke-linecap="square" stroke-linejoin="bevel" d="M63.9 32.1C79.3 47.5 88.9 67.2 91.5 88.5L95.4 88.5C89.6 40.1 49.4 2.2 0 0C0.1 1.5 0.3 2.8 0.4 3.9C24.4 5.1 46.8 15 63.9 32.1Z" sodipodi:nodetypes="cccccc"/>
  <path id="shape35" transform="translate(277.6, 309.5)" fill="#ffffff" stroke-opacity="0" stroke="#000000" stroke-width="0" stroke-linecap="square" stroke-linejoin="bevel" d="M59.5 10L45.1 0L30.8 10L0 10L0 49.7L90.4 49.7L90.4 10ZM21.8 43.8L13.9 43.8L13.9 23.9C13.9 21 16.1 19.6 17.2 19.3L17.9 19.1L18.6 19.3C19.8 19.8 21.8 21.2 21.8 23.9ZM54.7 44L35.7 44L35.7 22.9C35.7 14.9 41.6 11 44.7 10L45.3 9.8L45.9 10C46.2 10.1 54.8 13.4 54.8 22.8L54.8 44ZM76.4 43.8L68.5 43.8L68.5 23.9C68.5 21 70.7 19.6 71.8 19.3L72.5 19.1L73.2 19.3C74.4 19.8 76.4 21.2 76.4 23.9Z" sodipodi:nodetypes="ccccccccccccccccccccccccccccccccc"/>
  <path id="shape36" transform="translate(302.1, 248.6)" fill="#ffffff" stroke-opacity="0" stroke="#000000" stroke-width="0" stroke-linecap="square" stroke-linejoin="bevel" d="M36.4 52.1L41.3 52.1L41.3 4.1L30.1 0L11.2 0L0 4.1L0 52.1L4.9 52.1L15.9 44.4C15.7 43.8 15.6 43.2 15.6 42.5C15.6 39.7 17.9 37.4 20.7 37.4C23.5 37.4 25.8 39.7 25.8 42.5C25.8 43.2 25.7 43.8 25.4 44.4ZM31.8 10.3C31.8 7.5 34.2 6.2 34.2 6.2C34.2 6.2 36.6 7.5 36.6 12L36.6 35.4L31.8 33.7ZM9.5 33.6L4.7 35.3L4.7 11.9C4.7 7.4 7.1 6.1 7.1 6.1C7.1 6.1 9.5 7.4 9.5 10.2ZM24.7 32.4L16.7 32.4L16.7 9C16.7 6.1 18.9 4.6 20.1 4.3L20.8 4.1L21.5 4.3C22.7 4.8 24.8 6.3 24.8 9L24.8 32.4Z" sodipodi:nodetypes="ccccccccccccccccccccccccccccccccccc"/>
  <path id="shape37" transform="translate(222.3, 327)" fill="#ffffff" stroke-opacity="0" stroke="#000000" stroke-width="0" stroke-linecap="square" stroke-linejoin="bevel" d="M33.3 0L0 0C0.7 8.7 2.4 17.1 5.2 25.1L33.3 25.1Z" sodipodi:nodetypes="ccccc"/>
  <path id="shape38" transform="translate(277.6, 294.9)" fill="#ffffff" stroke-opacity="0" stroke="#000000" stroke-width="0" stroke-linecap="square" stroke-linejoin="bevel" d="M0 20.3L29.5 20.3L45.1 9.3L60.9 20.3L90.4 20.3L90.4 10L59.5 10L45.1 0L30.8 10L0 10Z" sodipodi:nodetypes="ccccccccccc"/>
  <path id="shape39" transform="translate(291.8, 393.1)" fill="#ffffff" stroke-opacity="0" stroke="#000000" stroke-width="0" stroke-linecap="square" stroke-linejoin="bevel" d="M40.2 0L22.5 0L0 22.1C9.7 25.2 20.1 26.9 30.9 26.9C41.9 26.9 52.5 25.1 62.4 21.8Z" sodipodi:nodetypes="cccccc"/>
  <path id="shape40" transform="translate(338.1, 393.1)" fill="#ffffff" stroke-opacity="0" stroke="#000000" stroke-width="0" stroke-linecap="square" stroke-linejoin="bevel" d="M0 0L20.9 20.2C33 15.5 43.9 8.6 53.2 0Z" sodipodi:nodetypes="cccc"/>
  <path id="shape41" transform="translate(254.2, 393.1)" fill="#ffffff" stroke-opacity="0" stroke="#000000" stroke-width="0" stroke-linecap="square" stroke-linejoin="bevel" d="M54 0L0 0C9.5 8.8 20.6 15.8 32.9 20.5Z" sodipodi:nodetypes="cccc"/>
  <path id="shape42" transform="translate(389.8, 312)" fill="#ffffff" stroke-opacity="0" stroke="#000000" stroke-width="0" stroke-linecap="square" stroke-linejoin="bevel" d="M33.6 7.4C33.6 4.9 33.5 2.5 33.3 0L0 0L0 10.2L33.5 10.2C33.5 9.3 33.6 8.4 33.6 7.4Z" sodipodi:nodetypes="cccccc"/>
  <path id="shape43" transform="translate(229.1, 356.5)" fill="#ffffff" stroke-opacity="0" stroke="#000000" stroke-width="0" stroke-linecap="square" stroke-linejoin="bevel" d="M26.5 32.2L26.5 32.2L23.8 32.1L26.5 32.2L26.5 0L0 0C4.8 12 11.8 23 20.6 32.2Z" sodipodi:nodetypes="cccccccc"/>
  <path id="shape44" transform="translate(389.8, 327)" fill="#ffffff" stroke-opacity="0" stroke="#000000" stroke-width="0" stroke-linecap="square" stroke-linejoin="bevel" d="M0 25.1L28.1 25.1C30.8 17.1 32.6 8.7 33.3 0L0 0Z" sodipodi:nodetypes="ccccc"/>
  <path id="shape45" transform="translate(389.8, 356.5)" fill="#ffffff" stroke-opacity="0" stroke="#000000" stroke-width="0" stroke-linecap="square" stroke-linejoin="bevel" d="M0 32.2L5.9 32.2C14.7 23 21.7 12 26.5 0L0 0Z" sodipodi:nodetypes="ccccc"/>
  <rect id="shape46" transform="translate(333.7, 388.6)" fill="#ffffff" stroke-opacity="0" stroke="#000000" stroke-width="0" stroke-linecap="square" stroke-linejoin="bevel" width="34.5" height="0.1"/>
  <rect id="shape47" transform="translate(277.3, 388.6)" fill="#ffffff" stroke-opacity="0" stroke="#000000" stroke-width="0" stroke-linecap="square" stroke-linejoin="bevel" width="34.5" height="0.1"/>
  <path id="shape48" transform="translate(277.3, 363.6)" fill="#ffffff" stroke-opacity="0" stroke="#000000" stroke-width="0" stroke-linecap="square" stroke-linejoin="bevel" d="M90.9 0L0 0L0 25L34.5 25L34.5 17.1C34.5 12.9 37.1 9.2 41 7.7L42 7.3C44.3 6.5 46.7 6.5 49 7.3L50 7.7C53.9 9.2 56.5 12.9 56.5 17.1L56.5 25L91 25L91 0Z" sodipodi:nodetypes="cccccccccccccc"/>
  <path id="shape49" transform="translate(260.5, 288.7)" fill="#ffffff" stroke-opacity="0" stroke="#000000" stroke-width="0" stroke-linecap="square" stroke-linejoin="bevel" d="M8.2 8.3L4 8.3L4 0L0 0L0 99.9L12.2 99.9L12.2 0L8.2 0Z" sodipodi:nodetypes="ccccccccc"/>
  <path id="shape50" transform="translate(372.7, 288.7)" fill="#ffffff" stroke-opacity="0" stroke="#000000" stroke-width="0" stroke-linecap="square" stroke-linejoin="bevel" d="M0 99.9L12.2 99.9L12.2 0L8.2 0L8.2 8.3L4 8.3L4 0L0 0Z" sodipodi:nodetypes="ccccccccc"/>
  <path id="shape51" transform="translate(373.5, 258.2)" fill="#ffffff" stroke-opacity="0" stroke="#000000" stroke-width="0" stroke-linecap="square" stroke-linejoin="bevel" d="M7.6 15.3C7.1 15.6 6.5 15.8 5.8 15.8C5 15.8 4.2 15.6 3.6 15.1C3 14.6 2.7 14 2.6 13.2L0 13.2C0 14.1 0.3 15 0.8 15.7C1.3 16.4 2 17 2.9 17.4C3.8 17.8 4.7 18 5.8 18C7 18 8 17.7 8.9 17.2C9.8 16.7 10.5 16 11.1 15.1C11.6 14.2 11.9 13.2 11.9 12C11.9 10.9 11.7 9.8 11.2 9C10.7 8.1 10.1 7.4 9.2 6.9C8.4 6.4 7.4 6.1 6.3 6.1C5.6 6.1 5 6.2 4.5 6.4C3.9 6.6 3.5 6.9 3.1 7.2L3 7.2L3.6 2.3L11.1 2.3L11.1 0L1.4 0L0.4 8.9L2.8 9.3C3.1 9 3.6 8.8 4.1 8.6C4.6 8.4 5.2 8.3 5.7 8.3C6.4 8.3 7 8.5 7.6 8.8C8.1 9.1 8.6 9.6 8.9 10.1C9.2 10.7 9.4 11.3 9.4 12C9.4 12.7 9.2 13.3 8.9 13.9C8.6 14.6 8.2 15 7.6 15.3Z" sodipodi:nodetypes="cccccccccccccccccccccccccccccc"/>
  <path id="shape52" transform="translate(357.3, 258.4)" fill="#ffffff" stroke-opacity="0" stroke="#000000" stroke-width="0" stroke-linecap="square" stroke-linejoin="bevel" d="M7.6 0L0 12L0 14.2L8.4 14.2L8.4 17.6L10.9 17.6L10.9 14.2L13.2 14.2L13.2 11.9L10.9 11.9L10.9 0ZM8.3 11.9L2.7 11.9L2.7 11.8L8.2 3.2L8.3 3.2Z" sodipodi:nodetypes="cccccccccccccccccc"/>
  <path id="shape53" transform="translate(272.5, 258.2)" fill="#ffffff" stroke-opacity="0" stroke="#000000" stroke-width="0" stroke-linecap="square" stroke-linejoin="bevel" d="M1.8 9.5C1.3 9.9 0.8 10.5 0.5 11.1C0.2 11.7 0 12.4 0 13.2C0 14.2 0.3 15 0.8 15.8C1.3 16.6 2.1 17.1 3 17.6C4 18 5.1 18.2 6.3 18.2C7.5 18.2 8.6 18 9.6 17.6C10.6 17.2 11.3 16.6 11.8 15.8C12.3 15 12.6 14.2 12.6 13.2C12.6 12.4 12.4 11.7 12.1 11.1C11.8 10.5 11.3 9.9 10.8 9.5C10.3 9.1 9.7 8.8 9 8.7L9 8.6C9.9 8.4 10.6 7.9 11.1 7.2C11.6 6.5 11.9 5.6 11.9 4.7C11.9 3.8 11.6 3 11.2 2.3C10.7 1.6 10 1 9.2 0.6C8.3 0.2 7.4 0 6.3 0C5.2 0 4.2 0.2 3.4 0.6C2.5 1 1.9 1.6 1.4 2.3C0.9 3 0.7 3.8 0.7 4.7C0.7 5.7 1 6.5 1.5 7.2C2 7.9 2.7 8.4 3.6 8.6L3.6 8.7C2.9 8.8 2.3 9.1 1.8 9.5ZM3.3 4.8C3.3 4.2 3.4 3.8 3.7 3.3C4 2.9 4.3 2.6 4.8 2.3C5.3 2.1 5.8 2 6.4 2C7 2 7.5 2.1 8 2.3C8.5 2.5 8.8 2.9 9.1 3.3C9.4 3.7 9.5 4.2 9.5 4.8C9.5 5.4 9.4 5.9 9.1 6.3C8.8 6.7 8.5 7.1 8 7.3C7.5 7.5 7 7.7 6.4 7.7C5.8 7.7 5.3 7.6 4.8 7.3C4.3 7.1 4 6.7 3.7 6.3C3.4 5.9 3.3 5.4 3.3 4.8ZM4.5 10.2C5 9.9 5.7 9.8 6.4 9.8C7.1 9.8 7.7 9.9 8.3 10.2C8.8 10.5 9.3 10.8 9.6 11.3C9.9 11.8 10.1 12.3 10.1 12.9C10.1 13.5 9.9 14 9.6 14.5C9.3 14.9 8.9 15.3 8.3 15.5C7.8 15.7 7.1 15.9 6.4 15.9C5.7 15.9 5 15.8 4.5 15.5C4 15.3 3.5 14.9 3.2 14.5C2.9 14.1 2.8 13.5 2.8 12.9C2.8 12.3 2.9 11.7 3.3 11.3C3.5 10.9 3.9 10.5 4.5 10.2Z" sodipodi:nodetypes="ccccccccccccccccccccccccccccccccccccccccccccccccccc"/>
  <path id="shape54" transform="translate(260, 258.3)" fill="#ffffff" stroke-opacity="0" stroke="#000000" stroke-width="0" stroke-linecap="square" stroke-linejoin="bevel" d="M0 2.9L0 5.5L4.3 2.7L4.4 2.7L4.4 17.8L7.1 17.8L7.1 0L4.4 0Z" sodipodi:nodetypes="ccccccccc"/>
 </g>
</svg>
