<svg xmlns="http://www.w3.org/2000/svg" width="339.8" height="335" viewBox="0 0 254.9 251.3"><g fill="none"><path d="M87 8a124 124 0 1 1 80 235A124 124 0 0 1 87 8Z"/><path fill="#aa0554" d="M128 78h-1c-1 0-3 1-3 3v17h6V81c0-2-1-3-2-3ZM139 83c0-3-2-4-2-4s-2 1-2 3v17l4 1ZM154 90h4v-6ZM118 79s-2 1-2 4v17l3-1V82l-1-3ZM147 132h-1l-2 4v14h6v-14c0-2-2-3-3-4ZM108 132h-1l-2 4v14h5v-14l-2-4ZM181 213l3-6-5-3ZM128 126h-1c-2 0-7 3-7 9v15h14v-15c0-7-6-9-6-9ZM93 91v1l1 1h3l1-1v-2l-1-1h-3l-1 1v1ZM42 63l5 9 1-7ZM65 208h7l1-6-8 6ZM95 87h2l1-1v-2l-1-1h-2l-1 1-1 1 1 1 1 1Z"/><path fill="#a80050" d="M167 243A124 124 0 1 0 87 8a124 124 0 0 0 80 235ZM30 144a3 3 0 1 1 2-3c1 2-1 3-2 3Zm21 40 2-4-1-2v-2l-3-2-4-1-4 1-4 4-1 4 2 4 1 1 1 1 4-2v-4l4 7-2-1-4 3-3-1a16 16 0 0 1-3-4l-2-4a9 9 0 0 1 4-9l4-2h4l4 2 3 3a16 16 0 0 1 2 4v2Zm8-35c-2-6-4-12-4-18h24v18Zm20 3v23h-4c-7-6-12-14-15-23Zm-24-24v-8h24v8Zm22 84-3-1-1 8 1 2h-1l-6-4h3l2-7c-6-2-11 0-11 1l1 2-6-3 1-1 2 1 16-11 2 1-2 9 2 2Zm40-33-15 14c-9-3-17-8-24-14ZM92 87a3 3 0 0 1 0-4l2-1 2-1 2 1 1 1 1 2-1 2-1 1h1l1 1a3 3 0 0 1 0 4l-2 1-2 1-3-1-1-1-1-2v-2l1-1h2l-2-1Zm35 15c-2 0-3 1-3 3v2l-8 5h-4V78l8-3h14l8 3v34h-3l-8-5v-2c0-2-2-3-4-3Zm-10 13 10-7 11 7h22v8h-21l-12-8-11 8H95v-8Zm45-25v2h-2v2h-2v-2h-6v-2l6-8h2v8Zm-27 85v-5c0-3-2-6-5-7h-6c-3 1-5 4-5 7v5H94v-18h66v18Zm25 0h-25Zm-41 0H95Zm-24-21v-28h22l10-8 11 8h22v28Zm-4-51v72h-9v-72h3v7h3v-7Zm-4-9h-2V84l-3 2v-2l3-2h2Zm22 139-14-3 3-1 3-16-2-1v-1l8 2v1h-3l-3 16 6 1 4-4Zm18-35c-8 0-15-1-22-3l16-16h13l16 15c-7 3-15 4-23 4Zm28 15-2 19h-2l-7-13-3 15h-1l-9-16-2-1v-1l7-1h1l-3 2 6 12 3-15h1l7 13 2-13-3-1 7-1Zm-2-20-15-14h39c-7 6-15 11-24 14Zm17-104-1-1h-5l1-6h7v1h-6v4l1-1a4 4 0 0 1 3 1l2 1v4l-2 2-2 1-2-1-2-1v-2h2v1l2 1h1l1-1v-3Zm-4 14v7h3v-7h3v72h-9v-72Zm34 28-4 18h-20v-18Zm-24-3v-8h24v8Zm19 24c-4 9-9 17-15 23h-4v-23Zm-5 63 1-3-6-4c-4 5-3 10-3 11l2-1h1l-6 4 1-2-4-19 2-1 8 5 2-2 1 1-2 2 7 4h2Zm24-23h-1l1-3-6-4h-11l-2 1v-1l4-6h1l-1 3h9l-3-8-2 1h-1l4-5v2l4 10 6 4 2-1h1Zm15-48c-2 1-3-1-3-3 0-1 1-3 3-3 1 0 3 1 3 3s-1 3-3 3Zm0-53 1-3 2 7v1l-2-2-13 3 3 1 5 5 1 2 6-2 1-3 2 8-2-2-6 1v1l-1 1v-1l-8 2-1 2-2-7 2 2 7-2v-1c-4-5-8-6-9-7l-1 1v2h-1l-2-7h1l2 2Zm-42-34h2l17-7 1 1-7 13 14-5v1l-9 15v3l-5-6 2 1 7-11-14 6v-1l7-14-12 6 1 2v1l-5-5Zm-22-13h3l7-15-2-2h1l7 3-1 1h-2l-8 14 2 2v1l-7-4Zm-33-9 3-1 2-15-2-2 8 1-3 1-2 16 7 1 2-5h1l-1 7-15-2Zm67 82h-3a69 69 0 0 0-65-61l-1-3c36 2 65 29 69 64Zm-72-64h1c0 5 1 10 3 12 4 4 8 4 10 10l-7-2h-14l-6 2c1-6 6-6 10-10 2-2 3-7 3-12Zm-25-34v1l-2 2 4 15 7-1 1-6 1 7-14 3 2-2-4-16h-2l-1-1Zm22 34v3a70 70 0 0 0-66 61h-3c4-35 33-62 69-64ZM71 32l-1 3 9 13h3l-7 4 1-2-8-14-3 1v-1ZM40 60l9 2 2-2h1l-2 2 9 3 2-1-5 6 1-3-8-2c-2 6 1 10 1 11l2-1h1l-4 5h-1l1-2-10-17ZM21 99a13 13 0 0 1 3-6l5 1v1l-4 1-2 2-1 1 1 4 2 4 3 2h5l4-2 2-4v-3l-5-1-2 2 2-8 1 3 4 1 1 2v5l-1 4-3 3a9 9 0 0 1-7 1l-4-2-3-3-1-4v-4Z"/><path fill="#fff" d="M29 138c-1 0-3 1-3 3s2 3 4 3c1 0 3-1 2-3 0-2-1-3-3-3ZM107 231l-6-1 3-16h3v-1l-8-2v1l2 1-3 16-3 1 14 3 2-6ZM54 178l-1-2-3-3-4-2h-4l-4 1-3 3-1 3v4l2 4 1 2 2 2 3 1 4-3 2 1-4-7v3l-4 3-1-1-1-1-2-4 1-4 4-4 4-1 4 1 3 2v2l1 2-2 4 4-3v-1l-1-2ZM150 213l3 1-1 13h-1l-7-13h-1l-3 15-6-12 3-1-1-1-7 2 2 1 9 16h1l3-15 7 13h2l2-19 2-1ZM75 209l2-9-2-1-16 11-2-1v1l5 3-1-2c0-1 5-3 11-1l-2 7h-3l7 4-1-2 2-8 2 1v-2l-2-1Zm-3-1h-7l8-6ZM216 186l-6-4-4-10v-3l-4 6h1l2-1 3 8h-9l1-3h-1l-4 6v1l2-1h11l6 4-1 3h1l5-7h-1ZM148 31h-1l-2 5-7-1 2-16 3-1-8-1 2 2-2 15-3 1v1l15 2ZM212 93h-1l2 7h1v-2h1c1 0 5 1 9 6v1l-7 2-2-2 2 8v-1l1-2 8-2v2l1-1v-2l6-1 2 2-2-8-1 3-6 2-1-2a16 16 0 0 0-8-6l13-3 2 2-2-8-1 3-15 4ZM172 47l-2-2 8-14h2l1-1-7-3h-1l2 2-7 15h-3l7 4ZM229 138c-2 0-3 2-3 3 0 2 1 4 3 4 2-1 3-2 3-4s-2-3-3-3ZM68 36l8 14-1 2 7-4h-3l-9-13 1-3-6 4v1ZM97 22l4 16-2 2 14-3-1-7-1 6-7 1-4-15 3-2-1-1-7 2v1ZM49 80l4-5h-1l-2 1s-3-5-1-11l8 2-1 3h1l4-6-2 1-8-2 1-3h-1l-2 2-9-2-1 1 10 17Zm-2-8-5-9 6 2-1 7ZM22 107a11 11 0 0 0 7 5h4a9 9 0 0 0 6-4 12 12 0 0 0 2-6l-1-3v-2l-5-1-1-3-2 8 2-2 5 1v3l-2 4-4 2a11 11 0 0 1-8-2 7 7 0 0 1-2-8v-1l2-2 4-1v-1l-5-1-1 2-1 2-1 2v4l1 4ZM194 210l-7-4 2-2-1-1-3 2-8-5-1 1 4 19-1 2 6-3-1-1-2 1c-1-1-1-6 3-11l6 4-2 3h1l6-4v-1Zm-13 3-2-9 5 3-3 6ZM191 61l-1-2 12-6v1l-7 13v1l14-6-7 11-2-1 5 6-1-3 10-15v-1l-14 5h-1l8-13-1-1-17 7h-3l5 5ZM55 117h3a69 69 0 0 1 66-61v-3c-36 2-65 29-69 64ZM79 120H55v8h24v-8ZM114 75l6-2h14l7 2c-2-6-6-6-10-10-2-2-3-7-3-12h-1c0 5-1 10-3 12-4 4-9 4-10 10ZM176 76c12 11 18 26 20 41h3c-4-35-33-62-69-64l1 3c17 1 33 8 45 20ZM138 126l-11-8-10 8H95v28h65v-28Zm-28 24h-5v-14l2-4h1l2 4Zm24 0h-14v-15c0-6 5-9 7-9v-1l1 1s6 2 6 9v15Zm16 0h-6v-14l2-4h1c1 1 3 2 3 4ZM139 112h3V78l-8-3h-14l-8 3v34h4l8-5v-2c0-2 1-3 3-3s4 1 4 3v2Zm-4-30c0-2 2-3 2-3s2 1 2 4v17l-4-1Zm-16 17-3 1V83c0-3 2-4 2-4l1 3Zm11-1h-6V81c0-2 2-3 3-3h1c1 0 2 1 2 3v17ZM79 131H55c0 6 2 12 4 18h20Z"/><path fill="#fff" d="M95 123h21l11-8 12 8h21v-8h-22l-11-7-10 7H95ZM134 179h-13l-16 16a73 73 0 0 0 45-1ZM138 179l15 14c9-3 17-8 24-14ZM117 179H78c7 6 15 11 24 14ZM200 126v-6h-24v8h24v-2ZM79 175h-2 2v-23H60c3 9 8 17 15 23ZM176 149h20l4-18h-24ZM176 175h4c6-6 11-14 15-23h-19ZM135 175h25-25zM95 175h25-25zM160 157H95v18h24v-5c0-3 2-6 5-7h7c2 1 4 4 4 7v5h25v-18ZM88 109h-3v-6h-3v72h9v-72h-3ZM163 175h9v-72h-3v6h-3v-6h-3ZM169 93h-1l-2-1v-1h-2v2l2 1a5 5 0 0 0 4 0l2-2v-2a4 4 0 0 0-2-4h-3l-1 1v-4h6v-1h-7l-1 6h3l1-1 1 1 1 1 1 1-1 2-1 1ZM158 82l-6 8v2h6v2h2v-2h2v-2h-2v-8Zm0 8h-4l4-6ZM92 88l-1 1a3 3 0 0 0 1 4l1 1 3 1 2-1 2-1a3 3 0 0 0-1-5h-1l1-1a3 3 0 0 0 0-4l-1-1h-4l-2 1v4l2 1h-2Zm1-3 1-1 1-1h2l1 1v2l-1 1h-2l-1-1-1-1Zm1 4h3l1 1v2l-1 1h-3l-1-1v-2l1-1ZM82 84v2l3-2v10h2V82h-2Z"/></g></svg>